<svg width="372" height="360" viewBox="0 0 372 360" fill="none" xmlns="http://www.w3.org/2000/svg">
<g clip-path="url(#clip0_45_709)">
<path d="M296.416 0.225128C296.304 0.337692 287.06 2.42024 275.9 4.72792C264.74 7.09189 253.749 9.39958 251.495 9.90614C246.647 10.9193 245.182 12.1013 245.182 14.9155C245.182 17.2795 246.985 19.1369 249.184 19.1369C250.085 19.1369 254.764 18.2363 259.667 17.1669C285.256 11.5384 289.315 10.6941 289.596 10.9756C290.667 12.045 273.025 37.4858 260.456 52.9079C241.293 76.435 215.027 102.776 189.72 123.771C144.404 161.369 92.0418 195.253 36.1855 223.001C26.2091 227.954 17.7545 232.457 17.4727 233.02C16.5709 234.652 16.7964 236.116 18.1491 237.804C19.1636 239.155 19.6145 239.324 21.5873 239.042C25.5891 238.48 58.6745 221.707 82.2909 208.254C117.405 188.161 141.473 172.12 177.827 144.54C200.373 127.429 234.924 95.3468 253.693 74.1836C269.644 56.1161 287.342 32.7579 295.064 19.5309C295.909 18.0112 296.811 16.998 297.093 17.2795C297.6 17.786 299.404 25.4971 302.335 39.3995C303.18 43.2831 304.195 48.2362 304.702 50.4876C305.773 55.6658 307.464 58.1987 309.887 58.4238C311.184 58.5364 312.029 58.255 313.1 57.1855C314.791 55.497 314.791 55.103 313.382 48.3488C312.705 45.422 311.691 40.7503 311.127 37.8798C308.478 25.1594 304.251 5.74106 303.744 3.82736C303.462 2.64539 302.673 1.35083 301.94 0.844254C300.869 0.112549 297.036 -0.337723 296.416 0.225128Z" fill="url(#paint0_linear_45_709)"/>
<path d="M317.215 84.2024L315.636 85.0466V131.651C315.636 157.26 315.467 217.035 315.242 264.427L314.904 350.656H302.898H290.949L290.78 244.615C290.555 141.275 290.555 138.574 289.484 137.392C288.413 136.21 288.018 136.21 268.009 136.21H247.605L246.422 137.504L245.182 138.799V245.009V351.218H232.782H220.382V275.065C220.382 207.072 220.269 198.799 219.48 197.673L218.635 196.435H197.555H176.475L175.742 197.673C175.178 198.686 174.953 214.333 174.84 275.065L174.727 351.218H162.327H149.927V300.843V250.525L148.236 249.624C145.7 248.329 108.275 248.386 106.245 249.68L104.836 250.581V268.142C104.836 277.766 104.667 300.28 104.442 318.123L104.104 350.656H92.0418H80.0364L79.98 340.918C79.8109 314.295 79.1909 295.665 78.4018 294.765C77.7255 293.92 75.5273 293.808 57.1527 293.808C39.7927 293.808 36.58 293.92 35.9036 294.652C34.6636 295.834 34.4382 299.661 34.0436 326.566L33.7055 350.656L22.8836 350.712C8.28545 350.768 1.80364 351.275 1.12727 352.344C0.225454 353.751 0.450909 357.185 1.52182 358.029C2.25455 358.704 31.4509 358.817 186.225 358.986L370.027 359.098L371.042 357.916C371.549 357.241 372 355.777 372 354.539C372 351.838 371.155 351.331 365.631 350.881L361.404 350.487L361.235 218.273L361.009 86.0035L359.318 84.6526L357.627 83.3018H338.182C322.062 83.3581 318.455 83.4706 317.215 84.2024ZM352.836 221.2V350.656H338.182H323.527V221.2V91.7445H338.182H352.836V221.2ZM282.382 247.373V350.656H268.009H253.636V247.373V144.09H268.009H282.382V247.373ZM211.927 277.485V350.656H197.555H183.182V277.485V204.315H197.555H211.927V277.485ZM141.473 303.658V350.656H127.1H112.727V303.658V256.66H127.1H141.473V303.658ZM71.0182 320.43C71.0182 330.449 71.1873 341.368 71.4127 344.633L71.7509 350.656H57.3218H42.8364V336.978C42.8364 329.492 43.0055 318.629 43.2309 312.776L43.5691 302.25H57.3218H71.0182V320.43Z" fill="url(#paint1_linear_45_709)"/>
</g>
<defs>
<linearGradient id="paint0_linear_45_709" x1="165.669" y1="239.158" x2="165.669" y2="-0.0280457" gradientUnits="userSpaceOnUse">
<stop stop-color="#16A3EC"/>
<stop offset="1" stop-color="#22D0B5"/>
</linearGradient>
<linearGradient id="paint1_linear_45_709" x1="186.283" y1="359.098" x2="186.283" y2="83.3018" gradientUnits="userSpaceOnUse">
<stop stop-color="#16A3EC"/>
<stop offset="1" stop-color="#22D0B5"/>
</linearGradient>
<clipPath id="clip0_45_709">
<rect width="372" height="359.098" fill="white"/>
</clipPath>
</defs>
</svg>
