<svg width="52" height="53" viewBox="0 0 52 53" fill="none" xmlns="http://www.w3.org/2000/svg">
<path d="M23.6772 0.0929222C18.7568 0.530071 14.0193 2.41082 9.94266 5.55219C8.67188 6.53831 6.25232 9.0087 5.25603 10.3506C1.45386 15.4643 -0.365893 21.503 0.061088 27.6129C0.396573 32.4012 1.78935 36.549 4.3614 40.3918C10.6645 49.8058 22.0608 54.0552 32.9692 51.0664C37.2695 49.8871 41.0818 47.6404 44.3655 44.3668C47.639 41.0831 49.8857 37.2708 51.065 32.9705C52.4985 27.7451 52.2748 22.0316 50.4551 17.101C49.9874 15.8302 48.7471 13.2785 48.1067 12.2822C46.0226 9.0087 43.0032 5.98933 39.7297 3.90525C38.7334 3.26478 36.1817 2.02451 34.9109 1.55686C31.5154 0.306412 27.3777 -0.232399 23.6772 0.0929222ZM29.5228 4.64739C40.238 6.42648 48.0863 16.0539 47.6288 26.8301C47.3239 33.8855 43.7758 40.1478 37.8489 44.0822C31.5357 48.2707 23.4027 48.8095 16.6015 45.4749C9.75966 42.1303 5.16453 35.512 4.4529 27.989C3.62943 19.2359 8.26523 10.8386 16.1949 6.73146C18.6856 5.44036 20.8612 4.82022 24.3787 4.41357C25.2327 4.3119 28.3435 4.45423 29.5228 4.64739Z" fill="url(#paint0_linear_51_202)"/>
<path d="M24.8362 9.84234C21.6542 10.2897 18.9703 12.2111 17.5368 15.0779C16.8862 16.3792 16.4491 18.6666 16.6727 19.6324C17.0387 21.2793 19.0821 21.8893 20.2817 20.7202C20.729 20.2831 20.8917 19.8662 20.973 18.9919C21.095 17.5788 21.583 16.5012 22.5081 15.5964C23.3926 14.7221 24.826 14.1122 26.0053 14.1122C27.1846 14.1122 28.618 14.7221 29.5025 15.5964C30.4988 16.5724 31.0071 17.7618 31.0071 19.1241C31.0173 20.4355 30.5903 21.5538 29.7261 22.5196C28.8213 23.5261 27.7844 24.0242 26.2696 24.1971C24.948 24.3394 24.3787 24.685 24.0127 25.5492C23.8704 25.8948 23.8399 26.3726 23.8399 28.904C23.8297 31.7099 23.8399 31.8725 24.0432 32.2589C24.9277 33.9363 27.0931 33.9465 27.9572 32.2792C28.13 31.9335 28.1504 31.6591 28.1707 30.1138L28.191 28.3449L28.8417 28.1415C32.4507 26.9724 35.0126 23.7904 35.3582 20.0492C35.8462 14.6916 31.7899 10.0457 26.412 9.80168C25.8833 9.77118 25.1717 9.79151 24.8362 9.84234Z" fill="url(#paint1_linear_51_202)"/>
<path d="M25.0395 35.8983C24.0839 36.2847 23.4942 36.8641 23.1689 37.7384C22.6606 39.1007 23.1486 40.5646 24.3685 41.3474C26.0053 42.4047 28.1605 41.6626 28.862 39.8225C29.3907 38.4399 28.7095 36.7523 27.3574 36.0712C26.7881 35.7764 25.5478 35.6849 25.0395 35.8983Z" fill="url(#paint2_linear_51_202)"/>
<defs>
<linearGradient id="paint0_linear_51_202" x1="9.5" y1="6" x2="45" y2="44.5" gradientUnits="userSpaceOnUse">
<stop stop-color="#22D0B5"/>
<stop offset="1" stop-color="#16A3EC"/>
</linearGradient>
<linearGradient id="paint1_linear_51_202" x1="20.0453" y1="12.5255" x2="36.1121" y2="26.3181" gradientUnits="userSpaceOnUse">
<stop stop-color="#22D0B5"/>
<stop offset="1" stop-color="#16A3EC"/>
</linearGradient>
<linearGradient id="paint2_linear_51_202" x1="24.079" y1="36.4796" x2="28.2082" y2="40.9735" gradientUnits="userSpaceOnUse">
<stop stop-color="#22D0B5"/>
<stop offset="1" stop-color="#16A3EC"/>
</linearGradient>
</defs>
</svg>
