<svg width="88" height="89" viewBox="0 0 88 89" fill="none" xmlns="http://www.w3.org/2000/svg">
<circle cx="43.6585" cy="31.4052" r="4.818" fill="#1A3553"/>
<path d="M28.2409 32.5912L18.8273 36.8903L20.7545 41.1894L28.5374 37.4092L37.5804 36.2232L40.5453 35.1113L48.5506 31.6276L60.4103 24.9565L59.4467 20.3608L46.6976 27.7731L38.9888 31.1087L36.7651 31.9982L28.2409 32.5912Z" fill="#1A354F"/>
<circle cx="43.7327" cy="31.4793" r="1.48246" fill="#FFFEFF"/>
<circle cx="32.7623" cy="34.7407" r="5.04037" fill="#1A3553"/>
<circle cx="32.6886" cy="34.8148" r="1.70483" fill="#FFFEFF"/>
<path d="M20.7544 41.1895C20.7544 44.5054 18.0663 47.1934 14.7504 47.1934C11.4345 47.1934 8.74646 44.5054 8.74646 41.1895C8.74646 37.8736 11.4345 35.1855 14.7504 35.1855C16.398 35.1855 17.8906 35.8491 18.9754 36.9237C20.0413 37.9794 20.7173 39.6897 20.7544 41.1895C20.7556 41.239 20.7544 41.1399 20.7544 41.1895Z" fill="#1A354F"/>
<rect x="68.2814" y="2.93512" width="4.15089" height="4.15089" transform="rotate(-45 68.2814 2.93512)" fill="#173551"/>
<circle cx="69.6014" cy="20.5833" r="10.1549" fill="#183350"/>
<circle cx="69.6756" cy="20.5091" r="5.04037" fill="#FBFFFC"/>
<rect x="68.2814" y="2.93512" width="4.15089" height="4.15089" transform="rotate(-45 68.2814 2.93512)" fill="#16A3EC"/>
<path d="M78.6495 36.1226C79.9068 35.7929 81.2002 36.5459 81.4499 37.8215C82.9239 45.3512 82.1421 53.1714 79.1754 60.2805C75.9057 68.1156 70.1635 74.6521 62.834 78.8826C55.5045 83.1131 46.9944 84.8027 38.6155 83.691C30.2365 82.5793 22.4538 78.728 16.4669 72.7308C10.48 66.7336 6.62116 58.9232 5.48524 50.5037C4.34932 42.0841 5.99934 33.5226 10.181 26.1388C14.3626 18.755 20.8437 12.9588 28.6254 9.64348C35.6831 6.63666 43.4552 5.82196 50.9471 7.27415C52.2244 7.52173 52.9822 8.81291 52.66 10.0734C52.3366 11.3386 51.0481 12.0919 49.764 11.8549C43.2765 10.6571 36.5628 11.3901 30.458 13.991C23.6251 16.902 17.9343 21.9915 14.2625 28.475C10.5907 34.9585 9.14189 42.4761 10.1393 49.869C11.1367 57.262 14.525 64.12 19.782 69.386C25.0389 74.652 31.8727 78.0337 39.23 79.0098C46.5873 79.986 54.0597 78.5024 60.4955 74.7877C66.9314 71.0731 71.9734 65.3336 74.8444 58.4538C77.414 52.2964 78.1169 45.5316 76.8933 39.0033C76.6548 37.7305 77.3968 36.451 78.6495 36.1226Z" fill="#16A3EC"/>
<path d="M82.3616 31.6736C83.6659 31.2226 85.0961 31.9141 85.47 33.2427C87.9078 41.9053 87.6195 51.1344 84.6102 59.6578C81.3229 68.9688 74.9827 76.8873 66.6254 82.1198C58.2681 87.3522 48.3876 89.5893 38.5979 88.4656C28.8082 87.342 19.688 82.924 12.727 75.9333C5.76605 68.9426 1.3758 59.7925 0.273416 49.9776C-0.828971 40.1627 1.42166 30.2632 6.65767 21.8961C11.8937 13.529 19.8056 7.18898 29.101 3.91161C37.6093 0.91172 46.8164 0.640144 55.4534 3.09951C56.7805 3.47739 57.4689 4.90808 57.0173 6.21197C56.5649 7.51855 55.1396 8.20166 53.807 7.83314C46.2419 5.74122 38.1978 6.00807 30.7573 8.63145C22.5272 11.5332 15.5221 17.1466 10.8862 24.5548C6.25028 31.9629 4.25759 40.7278 5.23363 49.4179C6.20967 58.1079 10.0968 66.2093 16.2599 72.3988C22.4231 78.5882 30.498 82.4999 39.1657 83.4948C47.8334 84.4897 56.5815 82.5089 63.981 77.8762C71.3805 73.2435 76.9941 66.2325 79.9047 57.9886C82.5379 50.5303 82.818 42.4616 80.7405 34.8699C80.377 33.5415 81.0599 32.1238 82.3616 31.6736Z" fill="#193751"/>
<circle cx="56.7042" cy="41.0412" r="1.85308" fill="#1D3758"/>
<path d="M39.4694 52.444C39.4694 50.0163 39.487 48.3388 40.1166 47.1942C41.1171 45.3755 43.0517 44.902 44.2874 44.902C45.4566 44.902 47.2439 45.5503 48.2425 47.1942C48.9636 48.3813 49.1054 50.0876 49.1054 52.444L49.0994 73.9575C49.0994 73.9575 47.045 74.5738 44.1689 74.5738C41.2928 74.5738 39.4438 74.1629 39.4438 74.1629C39.4438 74.1629 39.4694 58.729 39.4694 52.444Z" fill="#22D0B5"/>
<path d="M24.645 59.6417C24.645 57.215 24.6628 55.5382 25.3022 54.3941C26.318 52.5761 28.2824 52.1028 29.5371 52.1028C30.7243 52.1029 32.5391 52.7508 33.5531 54.3941C34.2853 55.5807 34.4293 57.2863 34.4293 59.6417V72.953C34.4293 72.953 30.8256 71.7228 28.7613 70.465C27.0277 69.4088 24.6525 67.2808 24.6525 67.2808C24.6525 67.2808 24.645 65.924 24.645 59.6417Z" fill="#22D0B5"/>
<path d="M54.4425 43.9333C54.4425 41.6285 54.4592 40.036 55.0598 38.9493C56.0141 37.2227 57.8594 36.7732 59.0382 36.7733C60.1534 36.7733 61.8581 37.3887 62.8107 38.9493C63.4985 40.0763 63.6338 41.6962 63.6338 43.9333V66.3886C63.6338 66.3886 62.453 67.897 59.2687 69.9514C56.0844 72.0058 54.4409 72.4166 54.4409 72.4166C54.4409 72.4166 54.4425 49.8999 54.4425 43.9333Z" fill="#22D0B5"/>
<circle cx="44.436" cy="50.6433" r="1.85308" fill="#1D3758"/>
<circle cx="58.964" cy="42.6614" r="1.85308" fill="#1D3758"/>
<circle cx="29.6114" cy="58.8987" r="1.85308" fill="#1D3758"/>
<path d="M74.4842 40.1238C75.8466 39.886 77.1529 40.7993 77.2875 42.1757C77.9048 48.4882 76.7557 54.8671 73.9452 60.582C70.7654 67.0477 65.624 72.3284 59.2645 75.6603C52.9049 78.9922 45.6568 80.2028 38.5682 79.1169C31.4797 78.0309 24.9182 74.7049 19.8325 69.6196C14.7469 64.5343 11.4007 57.9535 10.2779 50.8286C9.15506 43.7038 10.3138 36.4043 13.5865 29.9858C16.8592 23.5672 22.0763 18.3623 28.4833 15.1236C34.1407 12.2639 40.4669 11.0681 46.7388 11.6463C48.1199 11.7736 49.0432 13.0776 48.8159 14.4458C48.5879 15.8178 47.2892 16.7326 45.9026 16.6234C40.6836 16.2123 35.4343 17.2398 30.7282 19.6187C25.2691 22.3782 20.8239 26.813 18.0354 32.2819C15.247 37.7508 14.2597 43.9702 15.2164 50.0409C16.1731 56.1115 19.0241 61.7187 23.3573 66.0516C27.6905 70.3844 33.2812 73.2184 39.3209 74.1436C45.3606 75.0689 51.5364 74.0374 56.955 71.1985C62.3736 68.3595 66.7543 63.8602 69.4635 58.3512C71.8049 53.5901 72.7931 48.2882 72.3443 43.0273C72.227 41.6532 73.1258 40.3609 74.4842 40.1238Z" fill="#193751"/>
<circle cx="14.7505" cy="41.1895" r="2.44606" fill="#FBFFFC"/>
</svg>
