<svg width="417" height="89" viewBox="0 0 417 89" fill="none" xmlns="http://www.w3.org/2000/svg">
<circle cx="43.6585" cy="31.4052" r="4.818" fill="#1A3553"/>
<path d="M28.2409 32.5912L18.8273 36.8903L20.7545 41.1894L28.5374 37.4092L37.5804 36.2232L40.5453 35.1113L48.5506 31.6276L60.4103 24.9565L59.4467 20.3608L46.6976 27.7731L38.9888 31.1087L36.7651 31.9982L28.2409 32.5912Z" fill="#1A354F"/>
<circle cx="43.7327" cy="31.4793" r="1.48246" fill="#FFFEFF"/>
<circle cx="32.7623" cy="34.7407" r="5.04037" fill="#1A3553"/>
<circle cx="32.6886" cy="34.8148" r="1.70483" fill="#FFFEFF"/>
<path d="M20.7544 41.1895C20.7544 44.5054 18.0663 47.1934 14.7504 47.1934C11.4345 47.1934 8.74646 44.5054 8.74646 41.1895C8.74646 37.8736 11.4345 35.1855 14.7504 35.1855C16.398 35.1855 17.8906 35.8491 18.9754 36.9237C20.0413 37.9794 20.7173 39.6897 20.7544 41.1895C20.7556 41.239 20.7544 41.1399 20.7544 41.1895Z" fill="#1A354F"/>
<rect x="68.2814" y="2.93512" width="4.15089" height="4.15089" transform="rotate(-45 68.2814 2.93512)" fill="#173551"/>
<circle cx="69.6014" cy="20.5833" r="10.1549" fill="#183350"/>
<circle cx="69.6756" cy="20.5091" r="5.04037" fill="#FBFFFC"/>
<rect x="68.2814" y="2.93512" width="4.15089" height="4.15089" transform="rotate(-45 68.2814 2.93512)" fill="#16A3EC"/>
<path d="M78.6495 36.1226C79.9068 35.7929 81.2002 36.5459 81.4499 37.8215C82.9239 45.3512 82.1421 53.1714 79.1754 60.2805C75.9057 68.1156 70.1635 74.6521 62.834 78.8826C55.5045 83.1131 46.9944 84.8027 38.6155 83.691C30.2365 82.5793 22.4538 78.728 16.4669 72.7308C10.48 66.7336 6.62116 58.9232 5.48524 50.5037C4.34932 42.0841 5.99934 33.5226 10.181 26.1388C14.3626 18.755 20.8437 12.9588 28.6254 9.64348C35.6831 6.63666 43.4552 5.82196 50.9471 7.27415C52.2244 7.52173 52.9822 8.81291 52.66 10.0734C52.3366 11.3386 51.0481 12.0919 49.764 11.8549C43.2765 10.6571 36.5628 11.3901 30.458 13.991C23.6251 16.902 17.9343 21.9915 14.2625 28.475C10.5907 34.9585 9.14189 42.4761 10.1393 49.869C11.1367 57.262 14.525 64.12 19.782 69.386C25.0389 74.652 31.8727 78.0337 39.23 79.0098C46.5873 79.986 54.0597 78.5024 60.4955 74.7877C66.9314 71.0731 71.9734 65.3336 74.8444 58.4538C77.414 52.2964 78.1169 45.5316 76.8933 39.0033C76.6548 37.7305 77.3968 36.451 78.6495 36.1226Z" fill="#16A3EC"/>
<path d="M82.3616 31.6736C83.6659 31.2226 85.0961 31.9141 85.47 33.2427C87.9078 41.9053 87.6195 51.1344 84.6102 59.6578C81.3229 68.9688 74.9827 76.8873 66.6254 82.1198C58.2681 87.3522 48.3876 89.5893 38.5979 88.4656C28.8082 87.342 19.688 82.924 12.727 75.9333C5.76605 68.9426 1.3758 59.7925 0.273416 49.9776C-0.828971 40.1627 1.42166 30.2632 6.65767 21.8961C11.8937 13.529 19.8056 7.18898 29.101 3.91161C37.6093 0.91172 46.8164 0.640144 55.4534 3.09951C56.7805 3.47739 57.4689 4.90808 57.0173 6.21197C56.5649 7.51855 55.1396 8.20166 53.807 7.83314C46.2419 5.74122 38.1978 6.00807 30.7573 8.63145C22.5272 11.5332 15.5221 17.1466 10.8862 24.5548C6.25028 31.9629 4.25759 40.7278 5.23363 49.4179C6.20967 58.1079 10.0968 66.2093 16.2599 72.3988C22.4231 78.5882 30.498 82.4999 39.1657 83.4948C47.8334 84.4897 56.5815 82.5089 63.981 77.8762C71.3805 73.2435 76.9941 66.2325 79.9047 57.9886C82.5379 50.5303 82.818 42.4616 80.7405 34.8699C80.377 33.5415 81.0599 32.1238 82.3616 31.6736Z" fill="#193751"/>
<circle cx="56.7042" cy="41.0412" r="1.85308" fill="#1D3758"/>
<path d="M39.4694 52.444C39.4694 50.0163 39.487 48.3388 40.1166 47.1942C41.1171 45.3755 43.0517 44.902 44.2874 44.902C45.4566 44.902 47.2439 45.5503 48.2425 47.1942C48.9636 48.3813 49.1054 50.0876 49.1054 52.444L49.0994 73.9575C49.0994 73.9575 47.045 74.5738 44.1689 74.5738C41.2928 74.5738 39.4438 74.1629 39.4438 74.1629C39.4438 74.1629 39.4694 58.729 39.4694 52.444Z" fill="#22D0B5"/>
<path d="M24.645 59.6417C24.645 57.215 24.6628 55.5382 25.3022 54.3941C26.318 52.5761 28.2824 52.1028 29.5371 52.1028C30.7243 52.1029 32.5391 52.7508 33.5531 54.3941C34.2853 55.5807 34.4293 57.2863 34.4293 59.6417V72.953C34.4293 72.953 30.8256 71.7228 28.7613 70.465C27.0277 69.4088 24.6525 67.2808 24.6525 67.2808C24.6525 67.2808 24.645 65.924 24.645 59.6417Z" fill="#22D0B5"/>
<path d="M54.4425 43.9333C54.4425 41.6285 54.4592 40.036 55.0598 38.9493C56.0141 37.2227 57.8594 36.7732 59.0382 36.7733C60.1534 36.7733 61.8581 37.3887 62.8107 38.9493C63.4985 40.0763 63.6338 41.6962 63.6338 43.9333V66.3886C63.6338 66.3886 62.453 67.897 59.2687 69.9514C56.0844 72.0058 54.4409 72.4166 54.4409 72.4166C54.4409 72.4166 54.4425 49.8999 54.4425 43.9333Z" fill="#22D0B5"/>
<circle cx="44.436" cy="50.6433" r="1.85308" fill="#1D3758"/>
<circle cx="58.964" cy="42.6614" r="1.85308" fill="#1D3758"/>
<circle cx="29.6114" cy="58.8987" r="1.85308" fill="#1D3758"/>
<path d="M74.4842 40.1238C75.8466 39.886 77.1529 40.7993 77.2875 42.1757C77.9048 48.4882 76.7557 54.8671 73.9452 60.582C70.7654 67.0477 65.624 72.3284 59.2645 75.6603C52.9049 78.9922 45.6568 80.2028 38.5682 79.1169C31.4797 78.0309 24.9182 74.7049 19.8325 69.6196C14.7469 64.5343 11.4007 57.9535 10.2779 50.8286C9.15506 43.7038 10.3138 36.4043 13.5865 29.9858C16.8592 23.5672 22.0763 18.3623 28.4833 15.1236C34.1407 12.2639 40.4669 11.0681 46.7388 11.6463C48.1199 11.7736 49.0432 13.0776 48.8159 14.4458C48.5879 15.8178 47.2892 16.7326 45.9026 16.6234C40.6836 16.2123 35.4343 17.2398 30.7282 19.6187C25.2691 22.3782 20.8239 26.813 18.0354 32.2819C15.247 37.7508 14.2597 43.9702 15.2164 50.0409C16.1731 56.1115 19.0241 61.7187 23.3573 66.0516C27.6905 70.3844 33.2812 73.2184 39.3209 74.1436C45.3606 75.0689 51.5364 74.0374 56.955 71.1985C62.3736 68.3595 66.7543 63.8602 69.4635 58.3512C71.8049 53.5901 72.7931 48.2882 72.3443 43.0273C72.227 41.6532 73.1258 40.3609 74.4842 40.1238Z" fill="#193751"/>
<circle cx="14.7505" cy="41.1895" r="2.44606" fill="#FBFFFC"/>
<path d="M95.25 81.0909L103.295 33.0909H107.227L106.136 39.75H106.614C107.25 38.7045 108.076 37.6288 109.091 36.5227C110.121 35.4167 111.402 34.4924 112.932 33.75C114.477 32.9924 116.326 32.6136 118.477 32.6136C121.356 32.6136 123.742 33.3636 125.636 34.8636C127.545 36.3636 128.879 38.4697 129.636 41.1818C130.409 43.8939 130.492 47.0455 129.886 50.6364C129.295 54.2424 128.167 57.4015 126.5 60.1136C124.833 62.8258 122.795 64.9394 120.386 66.4545C117.992 67.9697 115.371 68.7273 112.523 68.7273C110.417 68.7273 108.712 68.3485 107.409 67.5909C106.121 66.8333 105.136 65.9015 104.455 64.7955C103.773 63.6742 103.28 62.5833 102.977 61.5227H102.614L99.3409 81.0909H95.25ZM104.386 50.5682C103.932 53.3864 103.932 55.8864 104.386 58.0682C104.841 60.2348 105.758 61.9394 107.136 63.1818C108.515 64.4091 110.333 65.0227 112.591 65.0227C114.909 65.0227 116.977 64.3864 118.795 63.1136C120.614 61.8258 122.129 60.0909 123.341 57.9091C124.553 55.7273 125.386 53.2803 125.841 50.5682C126.265 47.8864 126.25 45.4697 125.795 43.3182C125.341 41.1667 124.432 39.4621 123.068 38.2045C121.705 36.9318 119.848 36.2955 117.5 36.2955C115.227 36.2955 113.182 36.9091 111.364 38.1364C109.561 39.3485 108.061 41.0303 106.864 43.1818C105.667 45.3182 104.841 47.7803 104.386 50.5682ZM155.438 33.0909L154.869 36.6136H138.188L138.778 33.0909H155.438ZM145.347 24.7273H149.415L143.733 58.8864C143.491 60.3409 143.551 61.4848 143.915 62.3182C144.278 63.1364 144.839 63.7197 145.597 64.0682C146.354 64.4015 147.188 64.5682 148.097 64.5682C148.627 64.5682 149.081 64.5379 149.46 64.4773C149.854 64.4015 150.203 64.3258 150.506 64.25L150.801 67.9091C150.362 68.0606 149.839 68.197 149.233 68.3182C148.627 68.4545 147.9 68.5227 147.051 68.5227C145.566 68.5227 144.195 68.197 142.938 67.5455C141.68 66.8939 140.725 65.9242 140.074 64.6364C139.422 63.3485 139.248 61.75 139.551 59.8409L145.347 24.7273ZM158.852 68L164.67 33.0909H168.739L162.92 68H158.852ZM168.17 27.0227C167.322 27.0227 166.602 26.7348 166.011 26.1591C165.436 25.5833 165.155 24.8864 165.17 24.0682C165.201 23.2955 165.511 22.6288 166.102 22.0682C166.708 21.4924 167.42 21.2045 168.239 21.2045C169.087 21.2045 169.807 21.5 170.398 22.0909C170.989 22.6667 171.269 23.3636 171.239 24.1818C171.223 24.9545 170.913 25.6212 170.307 26.1818C169.701 26.7424 168.989 27.0227 168.17 27.0227ZM173.619 68L179.438 33.0909H183.369L182.46 38.4545H182.824C183.839 36.6515 185.248 35.2348 187.051 34.2045C188.854 33.1591 190.9 32.6364 193.188 32.6364C195.581 32.6364 197.46 33.2045 198.824 34.3409C200.188 35.4621 201.097 37.0076 201.551 38.9773H201.847C202.938 37.0379 204.475 35.5 206.46 34.3636C208.445 33.2121 210.71 32.6364 213.256 32.6364C216.483 32.6364 218.869 33.6591 220.415 35.7045C221.96 37.75 222.407 40.7197 221.756 44.6136L217.847 68H213.801L217.71 44.6136C218.15 41.8561 217.794 39.7879 216.642 38.4091C215.491 37.0303 213.763 36.3409 211.46 36.3409C208.794 36.3409 206.589 37.1591 204.847 38.7955C203.119 40.4167 202.051 42.4924 201.642 45.0227L197.801 68H193.665L197.642 44.25C198.021 41.8864 197.68 39.9773 196.619 38.5227C195.574 37.0682 193.854 36.3409 191.46 36.3409C189.839 36.3409 188.316 36.7424 186.892 37.5455C185.483 38.3333 184.286 39.4318 183.301 40.8409C182.331 42.2348 181.695 43.8333 181.392 45.6364L177.665 68H173.619ZM228.602 68L234.42 33.0909H238.489L232.67 68H228.602ZM237.92 27.0227C237.072 27.0227 236.352 26.7348 235.761 26.1591C235.186 25.5833 234.905 24.8864 234.92 24.0682C234.951 23.2955 235.261 22.6288 235.852 22.0682C236.458 21.4924 237.17 21.2045 237.989 21.2045C238.837 21.2045 239.557 21.5 240.148 22.0909C240.739 22.6667 241.019 23.3636 240.989 24.1818C240.973 24.9545 240.663 25.6212 240.057 26.1818C239.451 26.7424 238.739 27.0227 237.92 27.0227ZM242.278 68L242.847 64.7955L267.551 37.2045L267.597 36.9091H248.324L248.96 33.0909H273.483L272.915 36.4318L248.597 63.8864L248.551 64.1818H269.028L268.392 68H242.278ZM290.33 68.7273C287.072 68.7273 284.383 67.9697 282.261 66.4545C280.14 64.9242 278.655 62.8106 277.807 60.1136C276.958 57.4015 276.83 54.2803 277.42 50.75C278.011 47.2348 279.178 44.1136 280.92 41.3864C282.663 38.6439 284.814 36.5 287.375 34.9545C289.936 33.3939 292.716 32.6136 295.716 32.6136C297.61 32.6136 299.383 32.9621 301.034 33.6591C302.686 34.3409 304.087 35.3939 305.239 36.8182C306.405 38.2273 307.216 40.0076 307.67 42.1591C308.125 44.2955 308.11 46.8258 307.625 49.75L307.307 51.75H280.034L280.602 48.1818H303.761C304.14 45.9394 304.034 43.9242 303.443 42.1364C302.852 40.3485 301.845 38.9318 300.42 37.8864C299.011 36.8258 297.261 36.2955 295.17 36.2955C293.034 36.2955 291.011 36.8939 289.102 38.0909C287.208 39.2879 285.602 40.8485 284.284 42.7727C282.981 44.6818 282.14 46.7197 281.761 48.8864L281.307 51.5682C280.822 54.5227 280.883 57 281.489 59C282.095 60.9848 283.193 62.4848 284.784 63.5C286.375 64.5152 288.413 65.0227 290.898 65.0227C292.564 65.0227 294.072 64.7652 295.42 64.25C296.769 63.7348 297.943 63.0455 298.943 62.1818C299.943 61.303 300.746 60.3409 301.352 59.2955L304.966 60.5455C304.193 62.0152 303.102 63.3712 301.693 64.6136C300.299 65.8561 298.64 66.8561 296.716 67.6136C294.807 68.3561 292.678 68.7273 290.33 68.7273ZM313.494 68L319.312 33.0909H323.244L322.335 38.4545H322.631C323.6 36.697 325.047 35.2803 326.972 34.2045C328.911 33.1136 330.979 32.5682 333.176 32.5682C333.509 32.5682 333.881 32.5758 334.29 32.5909C334.699 32.5909 335.04 32.6061 335.312 32.6364L334.608 36.75C334.426 36.7197 334.108 36.6742 333.653 36.6136C333.214 36.553 332.722 36.5227 332.176 36.5227C330.358 36.5227 328.676 36.9091 327.131 37.6818C325.6 38.4394 324.313 39.4924 323.267 40.8409C322.237 42.1894 321.57 43.7273 321.267 45.4545L317.54 68H313.494ZM367.188 21.4545L359.46 68H355.21L362.938 21.4545H367.188ZM413.812 44.9773C413.009 49.7803 411.464 53.9545 409.176 57.5C406.888 61.0455 404.093 63.7879 400.79 65.7273C397.487 67.6667 393.896 68.6364 390.017 68.6364C386.032 68.6364 382.669 67.6439 379.926 65.6591C377.199 63.6591 375.267 60.8561 374.131 57.25C372.994 53.6288 372.828 49.3712 373.631 44.4773C374.434 39.6742 375.979 35.5 378.267 31.9545C380.555 28.4091 383.358 25.6667 386.676 23.7273C389.994 21.7879 393.6 20.8182 397.494 20.8182C401.434 20.8182 404.767 21.8106 407.494 23.7955C410.222 25.7803 412.161 28.5833 413.312 32.2045C414.464 35.8106 414.631 40.0682 413.812 44.9773ZM409.744 44.4773C410.441 40.3258 410.35 36.7879 409.472 33.8636C408.608 30.9394 407.123 28.7045 405.017 27.1591C402.911 25.5985 400.358 24.8182 397.358 24.8182C394.252 24.8182 391.335 25.6212 388.608 27.2273C385.881 28.8182 383.555 31.1212 381.631 34.1364C379.706 37.1364 378.388 40.75 377.676 44.9773C376.994 49.1136 377.085 52.6515 377.949 55.5909C378.813 58.5152 380.297 60.7576 382.403 62.3182C384.525 63.8636 387.093 64.6364 390.108 64.6364C393.229 64.6364 396.153 63.8333 398.881 62.2273C401.608 60.6212 403.926 58.3182 405.835 55.3182C407.759 52.303 409.063 48.6894 409.744 44.4773Z" fill="black"/>
</svg>
