<svg width="424" height="432" viewBox="0 0 424 432" fill="none" xmlns="http://www.w3.org/2000/svg">
<circle cx="212.515" cy="152.87" r="23.4524" fill="#1A3553"/>
<path d="M137.467 158.643L91.645 179.57L101.026 200.496L138.911 182.095L182.929 176.322L197.361 170.91L236.328 153.952L294.057 121.48L289.367 99.1097L227.308 135.19L189.784 151.427L178.96 155.756L137.467 158.643Z" fill="#1A354F"/>
<circle cx="212.876" cy="153.231" r="7.21613" fill="#FFFEFF"/>
<circle cx="159.476" cy="169.106" r="24.5348" fill="#1A3553"/>
<circle cx="159.115" cy="169.467" r="8.29854" fill="#FFFEFF"/>
<path d="M101.026 200.496C101.026 216.637 87.9412 229.722 71.8005 229.722C55.6598 229.722 42.5752 216.637 42.5752 200.496C42.5752 184.356 55.6598 171.271 71.8005 171.271C79.8204 171.271 87.0858 174.501 92.3665 179.732C97.5548 184.871 100.845 193.196 101.026 200.496C101.032 200.737 101.026 200.255 101.026 200.496Z" fill="#1A354F"/>
<rect x="332.372" y="14.2872" width="20.2052" height="20.2052" transform="rotate(-45 332.372 14.2872)" fill="#173551"/>
<circle cx="338.797" cy="100.192" r="49.4305" fill="#183350"/>
<circle cx="339.158" cy="99.8313" r="24.5348" fill="#FBFFFC"/>
<rect x="332.372" y="14.2872" width="20.2052" height="20.2052" transform="rotate(-45 332.372 14.2872)" fill="#16A3EC"/>
<path d="M382.84 175.833C388.96 174.228 395.256 177.893 396.472 184.102C403.647 220.754 399.841 258.82 385.4 293.425C369.484 331.564 341.533 363.381 305.856 383.974C270.178 404.566 228.754 412.791 187.968 407.38C147.182 401.968 109.299 383.222 80.1562 354.029C51.0138 324.837 32.2305 286.819 26.7012 245.835C21.172 204.851 29.2037 163.177 49.5585 127.235C69.9133 91.2932 101.461 63.0791 139.34 46.9413C173.694 32.3051 211.526 28.3394 247.994 35.4082C254.212 36.6134 257.901 42.8984 256.332 49.0343C254.758 55.1924 248.486 58.8596 242.235 57.7056C210.656 51.8754 177.977 55.4431 148.26 68.1034C115 82.2734 87.2989 107.047 69.426 138.607C51.553 170.166 44.5006 206.759 49.3557 242.746C54.2108 278.732 70.7038 312.115 96.2929 337.748C121.882 363.381 155.146 379.842 190.959 384.593C226.772 389.345 263.145 382.123 294.473 364.042C325.8 345.96 350.343 318.022 364.318 284.534C376.826 254.562 380.248 221.633 374.292 189.855C373.131 183.66 376.743 177.432 382.84 175.833Z" fill="#16A3EC"/>
<path d="M400.908 154.176C407.258 151.981 414.219 155.347 416.039 161.814C427.905 203.98 426.502 248.905 411.854 290.394C395.853 335.717 364.991 374.261 324.31 399.731C283.629 425.201 235.534 436.09 187.881 430.62C140.229 425.151 95.8344 403.645 61.9508 369.617C28.0672 335.589 6.69695 291.049 1.3309 243.274C-4.03515 195.498 6.92018 147.31 32.4073 106.582C57.8945 65.8542 96.4069 34.993 141.654 19.0398C183.069 4.43741 227.887 3.11547 269.929 15.0868C276.388 16.9263 279.739 23.8904 277.541 30.2372C275.339 36.5972 268.401 39.9224 261.914 38.1286C225.09 27.9458 185.934 29.2447 149.716 42.0145C109.655 56.1393 75.5564 83.4635 52.9903 119.524C30.4243 155.584 20.7245 198.249 25.4756 240.549C30.2266 282.849 49.1476 322.284 79.1479 352.412C109.148 382.541 148.454 401.581 190.646 406.424C232.837 411.267 275.42 401.625 311.438 379.075C347.457 356.524 374.781 322.397 388.949 282.269C401.767 245.964 403.13 206.688 393.018 169.735C391.248 163.268 394.572 156.367 400.908 154.176Z" fill="#193751"/>
<circle cx="276.017" cy="199.775" r="9.02016" fill="#1D3758"/>
<path d="M192.125 255.28C192.125 243.462 192.21 235.297 195.275 229.725C200.145 220.872 209.562 218.568 215.577 218.568C221.268 218.568 229.968 221.723 234.829 229.725C238.339 235.504 239.029 243.81 239.029 255.28L239 360C239 360 229 363 215 363C201 363 192 361 192 361C192 361 192.125 285.873 192.125 255.28Z" fill="#22D0B5"/>
<path d="M119.963 290.316C119.963 278.503 120.05 270.341 123.162 264.772C128.107 255.923 137.669 253.619 143.777 253.619C149.555 253.619 158.389 256.773 163.325 264.772C166.889 270.548 167.59 278.85 167.59 290.316V355.11C167.59 355.11 150.049 349.122 140 343C131.561 337.859 120 327.5 120 327.5C120 327.5 119.963 320.896 119.963 290.316Z" fill="#22D0B5"/>
<path d="M265.008 213.852C265.008 202.634 265.089 194.882 268.013 189.592C272.658 181.188 281.64 179 287.378 179C292.806 179 301.105 181.996 305.741 189.592C309.089 195.078 309.748 202.963 309.748 213.852V323.158C309.748 323.158 304 330.5 288.5 340.5C273 350.5 265 352.5 265 352.5C265 352.5 265.008 242.896 265.008 213.852Z" fill="#22D0B5"/>
<circle cx="216.299" cy="246.515" r="9.02016" fill="#1D3758"/>
<circle cx="287.017" cy="207.661" r="9.02016" fill="#1D3758"/>
<circle cx="144.137" cy="286.7" r="9.02016" fill="#1D3758"/>
<path d="M362.564 195.309C369.196 194.152 375.555 198.597 376.21 205.297C379.215 236.024 373.621 267.074 359.94 294.893C344.462 326.366 319.436 352.07 288.48 368.289C257.523 384.508 222.242 390.4 187.737 385.114C153.233 379.828 121.294 363.638 96.5383 338.885C71.7831 314.131 55.495 282.098 50.0295 247.417C44.5639 212.735 50.2042 177.204 66.1347 145.961C82.0652 114.717 107.46 89.3812 138.647 73.6165C166.186 59.6963 196.98 53.8757 227.509 56.6902C234.232 57.3099 238.726 63.657 237.619 70.3171C236.51 76.9958 230.188 81.4487 223.439 80.917C198.034 78.916 172.482 83.9174 149.574 95.4971C123.002 108.929 101.364 130.517 87.7907 157.137C74.2172 183.758 69.4114 214.032 74.0683 243.582C78.7252 273.132 92.6033 300.426 113.696 321.517C134.788 342.608 162.002 356.402 191.401 360.906C220.801 365.41 250.862 360.389 277.238 346.57C303.614 332.751 324.938 310.85 338.125 284.034C349.522 260.859 354.332 235.051 352.148 209.442C351.577 202.754 355.952 196.463 362.564 195.309Z" fill="#193751"/>
<circle cx="71.8007" cy="200.496" r="11.9066" fill="#FBFFFC"/>
</svg>
